<mxfile host="app.diagrams.net" modified="2024-04-01T01:06:13.696Z" agent="Mozilla/5.0 (Macintosh; Intel Mac OS X 10_15_7) AppleWebKit/605.1.15 (KHTML, like Gecko) Version/17.4 Safari/605.1.15" etag="e6D9KNXc9-mOpTk_IsJd" version="24.1.0" type="device">
  <diagram name="Page-1" id="hrw902O539XTYLNtP8d-">
    <mxGraphModel dx="1811" dy="667" grid="1" gridSize="10" guides="1" tooltips="1" connect="1" arrows="1" fold="1" page="1" pageScale="1" pageWidth="827" pageHeight="1169" math="0" shadow="0">
      <root>
        <mxCell id="0" />
        <mxCell id="1" parent="0" />
        <mxCell id="lFsfy4obLwNb20StSC2V-19" value="" style="rounded=0;whiteSpace=wrap;html=1;fillColor=#f5f5f5;fontColor=#333333;strokeColor=#666666;" parent="1" vertex="1">
          <mxGeometry x="-200" y="110" width="636" height="290" as="geometry" />
        </mxCell>
        <mxCell id="lFsfy4obLwNb20StSC2V-14" value="" style="rounded=0;whiteSpace=wrap;html=1;" parent="1" vertex="1">
          <mxGeometry x="-160" y="155" width="550" height="145" as="geometry" />
        </mxCell>
        <mxCell id="lFsfy4obLwNb20StSC2V-2" value="3" style="rounded=0;whiteSpace=wrap;html=1;fillColor=#f8cecc;strokeColor=#b85450;fontStyle=1;fontSize=17;" parent="1" vertex="1">
          <mxGeometry x="106" y="197.5" width="60" height="60" as="geometry" />
        </mxCell>
        <mxCell id="lFsfy4obLwNb20StSC2V-3" value="2" style="rounded=0;whiteSpace=wrap;html=1;fillColor=#f8cecc;strokeColor=#b85450;fontStyle=1;fontSize=17;" parent="1" vertex="1">
          <mxGeometry x="166" y="197.5" width="60" height="60" as="geometry" />
        </mxCell>
        <mxCell id="lFsfy4obLwNb20StSC2V-4" value="1" style="rounded=0;whiteSpace=wrap;html=1;fillColor=#f8cecc;strokeColor=#b85450;fontStyle=1;fontSize=17;" parent="1" vertex="1">
          <mxGeometry x="226" y="197.5" width="60" height="60" as="geometry" />
        </mxCell>
        <mxCell id="lFsfy4obLwNb20StSC2V-5" value="0" style="rounded=0;whiteSpace=wrap;html=1;fillColor=#f8cecc;strokeColor=#b85450;fontStyle=1;fontSize=17;" parent="1" vertex="1">
          <mxGeometry x="286" y="197.5" width="60" height="60" as="geometry" />
        </mxCell>
        <mxCell id="lFsfy4obLwNb20StSC2V-8" value="0X00" style="text;html=1;align=center;verticalAlign=middle;whiteSpace=wrap;rounded=0;fontColor=#990000;fontStyle=1" parent="1" vertex="1">
          <mxGeometry x="316" y="257.5" width="60" height="30" as="geometry" />
        </mxCell>
        <mxCell id="lFsfy4obLwNb20StSC2V-10" value="&lt;font style=&quot;font-size: 15px;&quot;&gt;int 1&lt;/font&gt;" style="text;html=1;align=center;verticalAlign=middle;whiteSpace=wrap;rounded=0;" parent="1" vertex="1">
          <mxGeometry x="286" y="167.5" width="60" height="30" as="geometry" />
        </mxCell>
        <mxCell id="lFsfy4obLwNb20StSC2V-11" value="&lt;font style=&quot;font-size: 15px;&quot;&gt;int 2&lt;/font&gt;" style="text;html=1;align=center;verticalAlign=middle;whiteSpace=wrap;rounded=0;" parent="1" vertex="1">
          <mxGeometry x="226" y="167.5" width="60" height="30" as="geometry" />
        </mxCell>
        <mxCell id="lFsfy4obLwNb20StSC2V-12" value="&lt;font style=&quot;font-size: 15px;&quot;&gt;int 3&lt;/font&gt;" style="text;html=1;align=center;verticalAlign=middle;whiteSpace=wrap;rounded=0;" parent="1" vertex="1">
          <mxGeometry x="166" y="167.5" width="60" height="30" as="geometry" />
        </mxCell>
        <mxCell id="lFsfy4obLwNb20StSC2V-13" value="&lt;font style=&quot;font-size: 15px;&quot;&gt;int 4&lt;/font&gt;" style="text;html=1;align=center;verticalAlign=middle;whiteSpace=wrap;rounded=0;" parent="1" vertex="1">
          <mxGeometry x="110" y="167.5" width="60" height="30" as="geometry" />
        </mxCell>
        <mxCell id="lFsfy4obLwNb20StSC2V-21" value="0X04" style="text;html=1;align=center;verticalAlign=middle;whiteSpace=wrap;rounded=0;fontColor=#990000;fontStyle=1" parent="1" vertex="1">
          <mxGeometry x="256" y="257.5" width="60" height="30" as="geometry" />
        </mxCell>
        <mxCell id="lFsfy4obLwNb20StSC2V-22" value="0X08" style="text;html=1;align=center;verticalAlign=middle;whiteSpace=wrap;rounded=0;fontColor=#990000;fontStyle=1" parent="1" vertex="1">
          <mxGeometry x="196" y="257.5" width="60" height="30" as="geometry" />
        </mxCell>
        <mxCell id="lFsfy4obLwNb20StSC2V-23" value="0X12" style="text;html=1;align=center;verticalAlign=middle;whiteSpace=wrap;rounded=0;fontColor=#990000;fontStyle=1" parent="1" vertex="1">
          <mxGeometry x="136" y="257.5" width="60" height="30" as="geometry" />
        </mxCell>
        <mxCell id="LY4sB3mU6g4VXUHB-9Zz-13" value="0X16" style="text;html=1;align=center;verticalAlign=middle;whiteSpace=wrap;rounded=0;fontColor=#990000;fontStyle=1" parent="1" vertex="1">
          <mxGeometry x="80" y="257.5" width="60" height="30" as="geometry" />
        </mxCell>
        <mxCell id="LY4sB3mU6g4VXUHB-9Zz-17" value="&lt;font style=&quot;font-size: 15px;&quot;&gt;int b[2][4] = {0, 1, 2, 3, 4, 5, 6, 7};&lt;/font&gt;" style="text;html=1;align=center;verticalAlign=middle;whiteSpace=wrap;rounded=0;" parent="1" vertex="1">
          <mxGeometry x="-184" y="350" width="260" height="30" as="geometry" />
        </mxCell>
        <mxCell id="rAnH9Cr9wzUhV75D2BLb-1" value="3" style="rounded=0;whiteSpace=wrap;html=1;fillColor=#f8cecc;strokeColor=#b85450;fontStyle=1;fontSize=17;" vertex="1" parent="1">
          <mxGeometry x="-134" y="197.5" width="60" height="60" as="geometry" />
        </mxCell>
        <mxCell id="rAnH9Cr9wzUhV75D2BLb-2" value="2" style="rounded=0;whiteSpace=wrap;html=1;fillColor=#f8cecc;strokeColor=#b85450;fontStyle=1;fontSize=17;" vertex="1" parent="1">
          <mxGeometry x="-74" y="197.5" width="60" height="60" as="geometry" />
        </mxCell>
        <mxCell id="rAnH9Cr9wzUhV75D2BLb-3" value="1" style="rounded=0;whiteSpace=wrap;html=1;fillColor=#f8cecc;strokeColor=#b85450;fontStyle=1;fontSize=17;" vertex="1" parent="1">
          <mxGeometry x="-14" y="197.5" width="60" height="60" as="geometry" />
        </mxCell>
        <mxCell id="rAnH9Cr9wzUhV75D2BLb-4" value="0" style="rounded=0;whiteSpace=wrap;html=1;fillColor=#f8cecc;strokeColor=#b85450;fontStyle=1;fontSize=17;" vertex="1" parent="1">
          <mxGeometry x="46" y="197.5" width="60" height="60" as="geometry" />
        </mxCell>
        <mxCell id="rAnH9Cr9wzUhV75D2BLb-6" value="&lt;font style=&quot;font-size: 15px;&quot;&gt;int 5&lt;/font&gt;" style="text;html=1;align=center;verticalAlign=middle;whiteSpace=wrap;rounded=0;" vertex="1" parent="1">
          <mxGeometry x="46" y="167.5" width="60" height="30" as="geometry" />
        </mxCell>
        <mxCell id="rAnH9Cr9wzUhV75D2BLb-7" value="&lt;font style=&quot;font-size: 15px;&quot;&gt;int 6&lt;/font&gt;" style="text;html=1;align=center;verticalAlign=middle;whiteSpace=wrap;rounded=0;" vertex="1" parent="1">
          <mxGeometry x="-14" y="167.5" width="60" height="30" as="geometry" />
        </mxCell>
        <mxCell id="rAnH9Cr9wzUhV75D2BLb-8" value="&lt;font style=&quot;font-size: 15px;&quot;&gt;int 7&lt;/font&gt;" style="text;html=1;align=center;verticalAlign=middle;whiteSpace=wrap;rounded=0;" vertex="1" parent="1">
          <mxGeometry x="-74" y="167.5" width="60" height="30" as="geometry" />
        </mxCell>
        <mxCell id="rAnH9Cr9wzUhV75D2BLb-9" value="&lt;font style=&quot;font-size: 15px;&quot;&gt;int 8&lt;/font&gt;" style="text;html=1;align=center;verticalAlign=middle;whiteSpace=wrap;rounded=0;" vertex="1" parent="1">
          <mxGeometry x="-130" y="167.5" width="60" height="30" as="geometry" />
        </mxCell>
        <mxCell id="rAnH9Cr9wzUhV75D2BLb-10" value="0X04" style="text;html=1;align=center;verticalAlign=middle;whiteSpace=wrap;rounded=0;fontColor=#990000;fontStyle=1" vertex="1" parent="1">
          <mxGeometry x="16" y="257.5" width="60" height="30" as="geometry" />
        </mxCell>
        <mxCell id="rAnH9Cr9wzUhV75D2BLb-11" value="0X08" style="text;html=1;align=center;verticalAlign=middle;whiteSpace=wrap;rounded=0;fontColor=#990000;fontStyle=1" vertex="1" parent="1">
          <mxGeometry x="-44" y="257.5" width="60" height="30" as="geometry" />
        </mxCell>
        <mxCell id="rAnH9Cr9wzUhV75D2BLb-12" value="0X12" style="text;html=1;align=center;verticalAlign=middle;whiteSpace=wrap;rounded=0;fontColor=#990000;fontStyle=1" vertex="1" parent="1">
          <mxGeometry x="-104" y="257.5" width="60" height="30" as="geometry" />
        </mxCell>
        <mxCell id="rAnH9Cr9wzUhV75D2BLb-13" value="0X16" style="text;html=1;align=center;verticalAlign=middle;whiteSpace=wrap;rounded=0;fontColor=#990000;fontStyle=1" vertex="1" parent="1">
          <mxGeometry x="-160" y="257.5" width="60" height="30" as="geometry" />
        </mxCell>
        <mxCell id="rAnH9Cr9wzUhV75D2BLb-14" value="a[0][0]" style="text;html=1;align=center;verticalAlign=middle;whiteSpace=wrap;rounded=0;fontSize=14;" vertex="1" parent="1">
          <mxGeometry x="315" y="320" width="60" height="30" as="geometry" />
        </mxCell>
        <mxCell id="rAnH9Cr9wzUhV75D2BLb-15" value="a[1][0]" style="text;html=1;align=center;verticalAlign=middle;whiteSpace=wrap;rounded=0;fontSize=14;" vertex="1" parent="1">
          <mxGeometry x="76" y="320" width="60" height="30" as="geometry" />
        </mxCell>
        <mxCell id="rAnH9Cr9wzUhV75D2BLb-16" value="" style="endArrow=classic;html=1;rounded=0;entryX=0.5;entryY=0;entryDx=0;entryDy=0;" edge="1" parent="1">
          <mxGeometry width="50" height="50" relative="1" as="geometry">
            <mxPoint x="106" y="320" as="sourcePoint" />
            <mxPoint x="106" y="257.5" as="targetPoint" />
          </mxGeometry>
        </mxCell>
        <mxCell id="rAnH9Cr9wzUhV75D2BLb-18" value="" style="endArrow=classic;html=1;rounded=0;entryX=0.5;entryY=0;entryDx=0;entryDy=0;exitX=0.5;exitY=0;exitDx=0;exitDy=0;" edge="1" parent="1" source="rAnH9Cr9wzUhV75D2BLb-14" target="lFsfy4obLwNb20StSC2V-8">
          <mxGeometry width="50" height="50" relative="1" as="geometry">
            <mxPoint x="120" y="370" as="sourcePoint" />
            <mxPoint x="170" y="320" as="targetPoint" />
          </mxGeometry>
        </mxCell>
      </root>
    </mxGraphModel>
  </diagram>
</mxfile>
